<mxfile host="65bd71144e">
    <diagram id="741Hk9d9JGMTM8NXiiLr" name="Page-1">
        <mxGraphModel dx="2047" dy="195" grid="1" gridSize="10" guides="1" tooltips="1" connect="1" arrows="1" fold="1" page="1" pageScale="1" pageWidth="850" pageHeight="1100" math="0" shadow="0">
            <root>
                <mxCell id="0"/>
                <mxCell id="1" parent="0"/>
                <mxCell id="2" value="" style="edgeStyle=none;html=1;exitX=0;exitY=0.5;exitDx=0;exitDy=0;fontSize=18;" parent="1" source="6" target="3" edge="1">
                    <mxGeometry relative="1" as="geometry">
                        <mxPoint x="280" y="40" as="sourcePoint"/>
                        <Array as="points">
                            <mxPoint x="180" y="80"/>
                            <mxPoint y="80"/>
                        </Array>
                    </mxGeometry>
                </mxCell>
                <mxCell id="84" value="" style="edgeStyle=none;html=1;fontSize=18;" parent="1" source="3" target="83" edge="1">
                    <mxGeometry relative="1" as="geometry">
                        <Array as="points">
                            <mxPoint x="261" y="200"/>
                        </Array>
                    </mxGeometry>
                </mxCell>
                <mxCell id="85" style="edgeStyle=none;html=1;exitX=1;exitY=0.5;exitDx=0;exitDy=0;entryX=0.5;entryY=0;entryDx=0;entryDy=0;fontSize=18;" parent="1" source="3" target="30" edge="1">
                    <mxGeometry relative="1" as="geometry">
                        <Array as="points">
                            <mxPoint x="440" y="200"/>
                        </Array>
                    </mxGeometry>
                </mxCell>
                <mxCell id="86" style="edgeStyle=none;html=1;fontSize=18;entryX=0.5;entryY=0;entryDx=0;entryDy=0;" parent="1" source="3" target="16" edge="1">
                    <mxGeometry relative="1" as="geometry">
                        <mxPoint x="-196" y="281" as="targetPoint"/>
                        <Array as="points">
                            <mxPoint x="-200" y="200"/>
                        </Array>
                    </mxGeometry>
                </mxCell>
                <mxCell id="87" style="edgeStyle=none;html=1;exitX=0;exitY=0.5;exitDx=0;exitDy=0;entryX=0.5;entryY=0;entryDx=0;entryDy=0;fontSize=18;" parent="1" source="3" target="19" edge="1">
                    <mxGeometry relative="1" as="geometry">
                        <Array as="points">
                            <mxPoint x="-760" y="200"/>
                        </Array>
                    </mxGeometry>
                </mxCell>
                <mxCell id="3" value="&lt;font color=&quot;#000000&quot; style=&quot;font-size: 22px;&quot;&gt;Client Portal&lt;/font&gt;" style="shape=hexagon;perimeter=hexagonPerimeter2;whiteSpace=wrap;html=1;fixedSize=1;rounded=1;arcSize=26;fontSize=18;fillColor=#d5e8d4;strokeColor=#82b366;gradientColor=#97d077;" parent="1" vertex="1">
                    <mxGeometry x="-59" y="160" width="120" height="80" as="geometry"/>
                </mxCell>
                <mxCell id="4" value="&lt;font color=&quot;#000000&quot; style=&quot;font-size: 22px;&quot;&gt;Employee Dashboard&lt;/font&gt;" style="shape=hexagon;perimeter=hexagonPerimeter2;whiteSpace=wrap;html=1;fixedSize=1;rounded=1;arcSize=19;fontSize=18;fillColor=#d5e8d4;strokeColor=#82b366;gradientColor=#97d077;" parent="1" vertex="1">
                    <mxGeometry x="815" y="160" width="130" height="80" as="geometry"/>
                </mxCell>
                <mxCell id="5" value="&lt;font color=&quot;#000000&quot; style=&quot;font-size: 22px;&quot;&gt;Manager Dashboard&lt;/font&gt;" style="shape=hexagon;perimeter=hexagonPerimeter2;whiteSpace=wrap;html=1;fixedSize=1;rounded=1;arcSize=24;fontSize=18;fillColor=#d5e8d4;strokeColor=#82b366;gradientColor=#97d077;" parent="1" vertex="1">
                    <mxGeometry x="1690" y="156" width="140" height="84" as="geometry"/>
                </mxCell>
                <mxCell id="7" value="" style="edgeStyle=none;html=1;fontSize=18;" parent="1" source="6" target="4" edge="1">
                    <mxGeometry relative="1" as="geometry"/>
                </mxCell>
                <mxCell id="8" style="edgeStyle=none;html=1;exitX=1;exitY=0.5;exitDx=0;exitDy=0;fontSize=18;" parent="1" source="6" target="5" edge="1">
                    <mxGeometry relative="1" as="geometry">
                        <Array as="points">
                            <mxPoint x="700" y="80"/>
                            <mxPoint x="1760" y="80"/>
                        </Array>
                    </mxGeometry>
                </mxCell>
                <mxCell id="6" value="&lt;b&gt;&lt;font color=&quot;#000000&quot; style=&quot;font-size: 25px;&quot;&gt;Welcome&lt;/font&gt;&lt;/b&gt;" style="rounded=1;whiteSpace=wrap;html=1;arcSize=20;fontSize=18;fillColor=#fff2cc;strokeColor=#d6b656;gradientColor=#ffd966;" parent="1" vertex="1">
                    <mxGeometry x="760" y="40" width="240" height="80" as="geometry"/>
                </mxCell>
                <mxCell id="15" value="" style="edgeStyle=orthogonalEdgeStyle;html=1;fontSize=18;" parent="1" source="16" target="78" edge="1">
                    <mxGeometry relative="1" as="geometry"/>
                </mxCell>
                <mxCell id="16" value="&lt;font color=&quot;#000000&quot; style=&quot;font-size: 22px;&quot;&gt;Log in&lt;br&gt;Client&lt;/font&gt;" style="rounded=1;whiteSpace=wrap;html=1;fontSize=18;fillColor=#ffcc99;strokeColor=#36393d;arcSize=12;" parent="1" vertex="1">
                    <mxGeometry x="-280" y="280" width="160" height="60" as="geometry"/>
                </mxCell>
                <mxCell id="18" value="" style="edgeStyle=none;html=1;fontSize=18;" parent="1" source="19" target="44" edge="1">
                    <mxGeometry relative="1" as="geometry"/>
                </mxCell>
                <mxCell id="19" value="&lt;font color=&quot;#000000&quot; style=&quot;font-size: 22px;&quot;&gt;Sign up&lt;br&gt;Request&lt;/font&gt;" style="rounded=1;whiteSpace=wrap;html=1;fontSize=18;arcSize=12;fillColor=#ffcc99;strokeColor=#36393d;" parent="1" vertex="1">
                    <mxGeometry x="-840" y="280" width="160" height="60" as="geometry"/>
                </mxCell>
                <mxCell id="88" style="edgeStyle=none;html=1;entryX=0;entryY=0.5;entryDx=0;entryDy=0;fontSize=18;exitX=1;exitY=0.5;exitDx=0;exitDy=0;" parent="1" source="89" target="16" edge="1">
                    <mxGeometry relative="1" as="geometry">
                        <mxPoint x="-540" y="520" as="sourcePoint"/>
                        <Array as="points">
                            <mxPoint x="-500" y="520"/>
                            <mxPoint x="-500" y="310"/>
                        </Array>
                    </mxGeometry>
                </mxCell>
                <mxCell id="25" value="create client" style="rounded=1;whiteSpace=wrap;html=1;fontSize=18;" parent="1" vertex="1">
                    <mxGeometry x="20" y="1427" width="120" height="60" as="geometry"/>
                </mxCell>
                <mxCell id="26" value="" style="edgeStyle=none;html=1;entryX=0.5;entryY=0;entryDx=0;entryDy=0;fontSize=18;" parent="1" source="27" target="29" edge="1">
                    <mxGeometry relative="1" as="geometry">
                        <mxPoint x="50" y="1522" as="targetPoint"/>
                        <Array as="points">
                            <mxPoint x="60" y="1536"/>
                        </Array>
                    </mxGeometry>
                </mxCell>
                <mxCell id="27" value="Account exist" style="rounded=1;whiteSpace=wrap;html=1;fontSize=18;" parent="1" vertex="1">
                    <mxGeometry x="-150" y="1506" width="120" height="60" as="geometry"/>
                </mxCell>
                <mxCell id="28" value="" style="edgeStyle=none;html=1;fontSize=18;" parent="1" source="29" target="32" edge="1">
                    <mxGeometry relative="1" as="geometry"/>
                </mxCell>
                <mxCell id="29" value="list of accounts" style="rounded=1;whiteSpace=wrap;html=1;fontSize=18;" parent="1" vertex="1">
                    <mxGeometry y="1586" width="120" height="60" as="geometry"/>
                </mxCell>
                <mxCell id="30" value="&lt;font style=&quot;font-size: 22px;&quot; color=&quot;#000000&quot;&gt;Exit&lt;/font&gt;" style="whiteSpace=wrap;html=1;rounded=1;fontSize=18;fillColor=#f8cecc;strokeColor=#b85450;arcSize=12;gradientColor=#ea6b66;" parent="1" vertex="1">
                    <mxGeometry x="380" y="281" width="120" height="60" as="geometry"/>
                </mxCell>
                <mxCell id="31" value="" style="edgeStyle=none;html=1;fontSize=18;" parent="1" source="32" target="35" edge="1">
                    <mxGeometry relative="1" as="geometry"/>
                </mxCell>
                <mxCell id="32" value="select account" style="whiteSpace=wrap;html=1;rounded=1;fontSize=18;" parent="1" vertex="1">
                    <mxGeometry y="1726" width="120" height="60" as="geometry"/>
                </mxCell>
                <mxCell id="33" value="" style="edgeStyle=none;html=1;fontSize=18;" parent="1" source="35" target="37" edge="1">
                    <mxGeometry relative="1" as="geometry">
                        <Array as="points">
                            <mxPoint x="-140" y="1806"/>
                            <mxPoint x="-215" y="1806"/>
                        </Array>
                    </mxGeometry>
                </mxCell>
                <mxCell id="34" value="" style="edgeStyle=none;html=1;exitX=0.5;exitY=1;exitDx=0;exitDy=0;fontSize=18;" parent="1" source="35" target="39" edge="1">
                    <mxGeometry relative="1" as="geometry">
                        <Array as="points">
                            <mxPoint x="-140" y="1806"/>
                            <mxPoint x="-90" y="1806"/>
                        </Array>
                    </mxGeometry>
                </mxCell>
                <mxCell id="35" value="account blocked" style="whiteSpace=wrap;html=1;rounded=1;fontSize=18;" parent="1" vertex="1">
                    <mxGeometry x="-200" y="1726" width="120" height="60" as="geometry"/>
                </mxCell>
                <mxCell id="36" value="" style="edgeStyle=none;html=1;fontSize=18;" parent="1" source="37" target="41" edge="1">
                    <mxGeometry relative="1" as="geometry"/>
                </mxCell>
                <mxCell id="37" value="No" style="whiteSpace=wrap;html=1;rounded=1;fontSize=18;" parent="1" vertex="1">
                    <mxGeometry x="-240" y="1826" width="50" height="60" as="geometry"/>
                </mxCell>
                <mxCell id="38" value="" style="edgeStyle=none;html=1;fontSize=18;" parent="1" source="39" target="81" edge="1">
                    <mxGeometry relative="1" as="geometry"/>
                </mxCell>
                <mxCell id="39" value="Yes" style="whiteSpace=wrap;html=1;rounded=1;fontSize=18;" parent="1" vertex="1">
                    <mxGeometry x="-115" y="1826" width="50" height="60" as="geometry"/>
                </mxCell>
                <mxCell id="40" value="" style="edgeStyle=orthogonalEdgeStyle;html=1;fontSize=18;" parent="1" source="41" target="69" edge="1">
                    <mxGeometry relative="1" as="geometry"/>
                </mxCell>
                <mxCell id="41" value="login account" style="whiteSpace=wrap;html=1;rounded=1;fontSize=18;" parent="1" vertex="1">
                    <mxGeometry x="-275" y="1966" width="120" height="60" as="geometry"/>
                </mxCell>
                <mxCell id="42" style="edgeStyle=none;html=1;exitX=0;exitY=0.5;exitDx=0;exitDy=0;fontSize=18;entryX=0.5;entryY=0;entryDx=0;entryDy=0;" parent="1" target="92" edge="1">
                    <mxGeometry relative="1" as="geometry">
                        <mxPoint x="-801" y="438" as="sourcePoint"/>
                        <mxPoint x="-964.5" y="488" as="targetPoint"/>
                        <Array as="points">
                            <mxPoint x="-961" y="438"/>
                        </Array>
                    </mxGeometry>
                </mxCell>
                <mxCell id="43" style="edgeStyle=none;html=1;exitX=1;exitY=0.5;exitDx=0;exitDy=0;fontSize=18;entryX=0.5;entryY=0;entryDx=0;entryDy=0;" parent="1" source="44" target="89" edge="1">
                    <mxGeometry relative="1" as="geometry">
                        <mxPoint x="-560" y="480" as="targetPoint"/>
                        <Array as="points">
                            <mxPoint x="-560" y="438"/>
                        </Array>
                    </mxGeometry>
                </mxCell>
                <mxCell id="44" value="&lt;font style=&quot;font-size: 22px;&quot;&gt;CIN&lt;br&gt;Test&lt;/font&gt;" style="rhombus;whiteSpace=wrap;html=1;rounded=1;fontSize=18;arcSize=0;fillColor=#f0a30a;fontColor=#000000;strokeColor=#BD7000;" parent="1" vertex="1">
                    <mxGeometry x="-803" y="393" width="85" height="88" as="geometry"/>
                </mxCell>
                <mxCell id="93" style="edgeStyle=none;html=1;fontSize=18;" parent="1" source="46" edge="1">
                    <mxGeometry relative="1" as="geometry">
                        <mxPoint x="-402.5" y="560" as="targetPoint"/>
                    </mxGeometry>
                </mxCell>
                <mxCell id="161" style="edgeStyle=none;html=1;entryX=1;entryY=0.5;entryDx=0;entryDy=0;" parent="1" source="46" target="19" edge="1">
                    <mxGeometry relative="1" as="geometry">
                        <mxPoint x="-679.9999999999998" y="310" as="targetPoint"/>
                        <Array as="points">
                            <mxPoint x="-460" y="520"/>
                            <mxPoint x="-460" y="400"/>
                            <mxPoint x="-560" y="400"/>
                            <mxPoint x="-560" y="310"/>
                        </Array>
                    </mxGeometry>
                </mxCell>
                <mxCell id="46" value="&lt;font style=&quot;font-size: 22px;&quot; color=&quot;#000000&quot;&gt;New&lt;br&gt;CIN&lt;/font&gt;" style="whiteSpace=wrap;html=1;rounded=1;fontSize=18;arcSize=24;fillColor=#f8cecc;strokeColor=#b85450;gradientColor=#ea6b66;" parent="1" vertex="1">
                    <mxGeometry x="-422" y="480.38" width="45" height="79.62" as="geometry"/>
                </mxCell>
                <mxCell id="47" style="edgeStyle=none;html=1;exitX=1;exitY=0.5;exitDx=0;exitDy=0;entryX=1;entryY=0.5;entryDx=0;entryDy=0;fontSize=18;" parent="1" source="82" target="29" edge="1">
                    <mxGeometry relative="1" as="geometry">
                        <Array as="points">
                            <mxPoint x="360" y="2156"/>
                            <mxPoint x="360" y="1616"/>
                        </Array>
                    </mxGeometry>
                </mxCell>
                <mxCell id="48" value="" style="edgeStyle=none;html=1;fontSize=18;" parent="1" source="49" target="82" edge="1">
                    <mxGeometry relative="1" as="geometry"/>
                </mxCell>
                <mxCell id="49" value="BLock Account" style="whiteSpace=wrap;html=1;rounded=1;fontSize=18;" parent="1" vertex="1">
                    <mxGeometry x="190" y="2026" width="120" height="60" as="geometry"/>
                </mxCell>
                <mxCell id="50" value="" style="edgeStyle=none;html=1;fontSize=18;" parent="1" source="51" target="53" edge="1">
                    <mxGeometry relative="1" as="geometry"/>
                </mxCell>
                <mxCell id="51" value="no Account found" style="whiteSpace=wrap;html=1;rounded=1;fontSize=18;" parent="1" vertex="1">
                    <mxGeometry x="-366" y="1506" width="120" height="60" as="geometry"/>
                </mxCell>
                <mxCell id="52" style="html=1;exitX=0;exitY=0.5;exitDx=0;exitDy=0;entryX=0;entryY=0.25;entryDx=0;entryDy=0;fontSize=18;" parent="1" source="53" edge="1">
                    <mxGeometry relative="1" as="geometry">
                        <Array as="points">
                            <mxPoint x="-480" y="1646"/>
                            <mxPoint x="-480" y="1420"/>
                            <mxPoint x="-440" y="1420"/>
                            <mxPoint x="-30" y="1420"/>
                            <mxPoint x="-30" y="1346"/>
                        </Array>
                        <mxPoint x="50" y="1346.0000000000002" as="targetPoint"/>
                    </mxGeometry>
                </mxCell>
                <mxCell id="53" value="create Account" style="whiteSpace=wrap;html=1;rounded=1;fontSize=18;" parent="1" vertex="1">
                    <mxGeometry x="-366" y="1616" width="120" height="60" as="geometry"/>
                </mxCell>
                <mxCell id="54" style="edgeStyle=orthogonalEdgeStyle;html=1;exitX=0;exitY=0.5;exitDx=0;exitDy=0;entryX=1;entryY=0.5;entryDx=0;entryDy=0;fontSize=18;" parent="1" source="55" target="58" edge="1">
                    <mxGeometry relative="1" as="geometry"/>
                </mxCell>
                <mxCell id="55" value="display client information" style="whiteSpace=wrap;html=1;rounded=1;fontSize=18;" parent="1" vertex="1">
                    <mxGeometry x="310" y="1271" width="120" height="61" as="geometry"/>
                </mxCell>
                <mxCell id="56" style="edgeStyle=orthogonalEdgeStyle;html=1;exitX=0.5;exitY=1;exitDx=0;exitDy=0;fontSize=18;" parent="1" target="51" edge="1">
                    <mxGeometry relative="1" as="geometry">
                        <Array as="points">
                            <mxPoint x="110" y="1426"/>
                            <mxPoint x="-306" y="1426"/>
                        </Array>
                        <mxPoint x="110" y="1376.0000000000002" as="sourcePoint"/>
                    </mxGeometry>
                </mxCell>
                <mxCell id="57" style="edgeStyle=orthogonalEdgeStyle;html=1;exitX=0.5;exitY=1;exitDx=0;exitDy=0;entryX=0.5;entryY=0;entryDx=0;entryDy=0;fontSize=18;" parent="1" target="27" edge="1">
                    <mxGeometry relative="1" as="geometry">
                        <mxPoint x="-90" y="1496" as="targetPoint"/>
                        <Array as="points">
                            <mxPoint x="110" y="1426"/>
                            <mxPoint x="-90" y="1426"/>
                        </Array>
                        <mxPoint x="110" y="1376.0000000000002" as="sourcePoint"/>
                    </mxGeometry>
                </mxCell>
                <mxCell id="58" value="log in Account" style="rounded=1;whiteSpace=wrap;html=1;fontSize=18;" parent="1" vertex="1">
                    <mxGeometry x="50" y="1321" width="120" height="40" as="geometry"/>
                </mxCell>
                <mxCell id="59" value="" style="edgeStyle=orthogonalEdgeStyle;html=1;fontSize=18;entryX=0.495;entryY=0.044;entryDx=0;entryDy=0;entryPerimeter=0;" parent="1" source="60" target="63" edge="1">
                    <mxGeometry relative="1" as="geometry">
                        <mxPoint x="1" y="720" as="targetPoint"/>
                    </mxGeometry>
                </mxCell>
                <mxCell id="60" value="&lt;font color=&quot;#000000&quot; style=&quot;font-size: 22px;&quot;&gt;authenticate client&lt;/font&gt;" style="whiteSpace=wrap;html=1;rounded=1;fontSize=18;fillColor=#ffe6cc;strokeColor=#d79b00;" parent="1" vertex="1">
                    <mxGeometry x="-80" y="601" width="160" height="69" as="geometry"/>
                </mxCell>
                <mxCell id="167" value="" style="edgeStyle=none;html=1;exitX=0.96;exitY=0.492;exitDx=0;exitDy=0;exitPerimeter=0;" parent="1" source="63" target="66" edge="1">
                    <mxGeometry relative="1" as="geometry"/>
                </mxCell>
                <mxCell id="168" value="" style="edgeStyle=none;html=1;exitX=0.043;exitY=0.493;exitDx=0;exitDy=0;exitPerimeter=0;" parent="1" source="63" target="65" edge="1">
                    <mxGeometry relative="1" as="geometry"/>
                </mxCell>
                <mxCell id="63" value="&lt;font color=&quot;#000000&quot; style=&quot;font-size: 22px;&quot;&gt;PIN&lt;/font&gt;" style="rhombus;whiteSpace=wrap;html=1;rounded=1;fontSize=18;fillColor=#ffcd28;gradientColor=#ffa500;strokeColor=#d79b00;" parent="1" vertex="1">
                    <mxGeometry x="-42" y="721" width="85" height="80" as="geometry"/>
                </mxCell>
                <mxCell id="175" value="" style="edgeStyle=none;html=1;" parent="1" source="65" target="174" edge="1">
                    <mxGeometry relative="1" as="geometry"/>
                </mxCell>
                <mxCell id="65" value="&lt;font color=&quot;#000000&quot; style=&quot;font-size: 22px;&quot;&gt;Correct&lt;/font&gt;" style="whiteSpace=wrap;html=1;rounded=1;fontSize=18;fillColor=#d5e8d4;gradientColor=#97d077;strokeColor=#82b366;" parent="1" vertex="1">
                    <mxGeometry x="-240" y="730" width="118" height="60" as="geometry"/>
                </mxCell>
                <mxCell id="66" value="&lt;font color=&quot;#000000&quot; style=&quot;font-size: 22px;&quot;&gt;False 3 times (exit)&lt;/font&gt;" style="whiteSpace=wrap;html=1;rounded=1;fontSize=18;fillColor=#f8cecc;gradientColor=#ea6b66;strokeColor=#b85450;" parent="1" vertex="1">
                    <mxGeometry x="121" y="728" width="139" height="62" as="geometry"/>
                </mxCell>
                <mxCell id="67" style="edgeStyle=orthogonalEdgeStyle;html=1;exitX=0.5;exitY=1;exitDx=0;exitDy=0;entryX=0;entryY=0.75;entryDx=0;entryDy=0;fontSize=18;" parent="1" source="69" target="71" edge="1">
                    <mxGeometry relative="1" as="geometry">
                        <Array as="points">
                            <mxPoint x="-52" y="2056"/>
                            <mxPoint x="20" y="2056"/>
                        </Array>
                    </mxGeometry>
                </mxCell>
                <mxCell id="68" style="edgeStyle=none;html=1;exitX=0.5;exitY=0;exitDx=0;exitDy=0;entryX=0;entryY=0.5;entryDx=0;entryDy=0;fontSize=18;" parent="1" source="69" target="73" edge="1">
                    <mxGeometry relative="1" as="geometry">
                        <Array as="points">
                            <mxPoint x="-52" y="1936"/>
                        </Array>
                    </mxGeometry>
                </mxCell>
                <mxCell id="69" value="PIN" style="rhombus;whiteSpace=wrap;html=1;rounded=1;fontSize=18;" parent="1" vertex="1">
                    <mxGeometry x="-90" y="1964" width="75" height="69" as="geometry"/>
                </mxCell>
                <mxCell id="70" value="" style="edgeStyle=orthogonalEdgeStyle;html=1;fontSize=18;" parent="1" source="71" target="49" edge="1">
                    <mxGeometry relative="1" as="geometry"/>
                </mxCell>
                <mxCell id="71" value="false 3 times" style="whiteSpace=wrap;html=1;rounded=1;fontSize=18;" parent="1" vertex="1">
                    <mxGeometry x="20" y="2026" width="120" height="60" as="geometry"/>
                </mxCell>
                <mxCell id="72" value="" style="edgeStyle=orthogonalEdgeStyle;html=1;fontSize=18;" parent="1" source="73" target="75" edge="1">
                    <mxGeometry relative="1" as="geometry"/>
                </mxCell>
                <mxCell id="73" value="right" style="whiteSpace=wrap;html=1;rounded=1;fontSize=18;" parent="1" vertex="1">
                    <mxGeometry x="20" y="1904" width="120" height="60" as="geometry"/>
                </mxCell>
                <mxCell id="74" value="" style="edgeStyle=none;html=1;fontSize=18;" parent="1" source="75" target="49" edge="1">
                    <mxGeometry relative="1" as="geometry"/>
                </mxCell>
                <mxCell id="75" value="display account details" style="whiteSpace=wrap;html=1;rounded=1;fontSize=18;" parent="1" vertex="1">
                    <mxGeometry x="190" y="1905" width="120" height="60" as="geometry"/>
                </mxCell>
                <mxCell id="76" value="" style="edgeStyle=orthogonalEdgeStyle;html=1;fontSize=18;entryX=0.5;entryY=0;entryDx=0;entryDy=0;" parent="1" source="78" target="46" edge="1">
                    <mxGeometry relative="1" as="geometry">
                        <mxPoint x="-400" y="470" as="targetPoint"/>
                        <Array as="points">
                            <mxPoint x="-400" y="438"/>
                        </Array>
                    </mxGeometry>
                </mxCell>
                <mxCell id="77" value="" style="edgeStyle=orthogonalEdgeStyle;html=1;fontSize=18;" parent="1" source="78" target="80" edge="1">
                    <mxGeometry relative="1" as="geometry"/>
                </mxCell>
                <mxCell id="78" value="&lt;font style=&quot;font-size: 20px;&quot;&gt;CIN&lt;br&gt;Test&lt;/font&gt;" style="rhombus;whiteSpace=wrap;html=1;fontSize=18;fillColor=#f0a30a;fontColor=#000000;strokeColor=#BD7000;" parent="1" vertex="1">
                    <mxGeometry x="-242.5" y="395.63" width="85" height="84.75" as="geometry"/>
                </mxCell>
                <mxCell id="166" value="" style="edgeStyle=none;html=1;" parent="1" source="80" target="60" edge="1">
                    <mxGeometry relative="1" as="geometry"/>
                </mxCell>
                <mxCell id="80" value="&lt;font style=&quot;font-size: 22px;&quot; color=&quot;#000000&quot;&gt;Old&lt;br&gt;CIN&lt;/font&gt;" style="rounded=1;whiteSpace=wrap;html=1;fontSize=18;fillColor=#d5e8d4;strokeColor=#82b366;gradientColor=#97d077;" parent="1" vertex="1">
                    <mxGeometry x="-20" y="488" width="40" height="60" as="geometry"/>
                </mxCell>
                <mxCell id="81" value="Message go to your Bank to unblock" style="whiteSpace=wrap;html=1;rounded=1;fontSize=18;" parent="1" vertex="1">
                    <mxGeometry x="-20" y="1826" width="120" height="60" as="geometry"/>
                </mxCell>
                <mxCell id="82" value="message block" style="whiteSpace=wrap;html=1;rounded=1;fontSize=18;" parent="1" vertex="1">
                    <mxGeometry x="190" y="2126" width="120" height="60" as="geometry"/>
                </mxCell>
                <mxCell id="202" value="" style="edgeStyle=none;html=1;" parent="1" source="83" target="201" edge="1">
                    <mxGeometry relative="1" as="geometry"/>
                </mxCell>
                <mxCell id="83" value="&lt;font color=&quot;#000000&quot; style=&quot;font-size: 22px;&quot;&gt;Return&lt;/font&gt;" style="whiteSpace=wrap;html=1;rounded=1;fontSize=18;fillColor=#f8cecc;strokeColor=#b85450;arcSize=12;" parent="1" vertex="1">
                    <mxGeometry x="201" y="280" width="120" height="60" as="geometry"/>
                </mxCell>
                <mxCell id="89" value="&lt;font style=&quot;font-size: 22px;&quot; color=&quot;#000000&quot;&gt;Old&lt;br&gt;CIN&lt;/font&gt;" style="whiteSpace=wrap;html=1;rounded=1;fontSize=18;arcSize=24;fillColor=#f8cecc;strokeColor=#b85450;gradientColor=#ea6b66;" parent="1" vertex="1">
                    <mxGeometry x="-582" y="480.38" width="45" height="79.62" as="geometry"/>
                </mxCell>
                <mxCell id="148" value="" style="edgeStyle=none;html=1;" parent="1" source="92" target="147" edge="1">
                    <mxGeometry relative="1" as="geometry"/>
                </mxCell>
                <mxCell id="92" value="&lt;font style=&quot;font-size: 22px;&quot; color=&quot;#000000&quot;&gt;New&lt;br&gt;CIN&lt;/font&gt;" style="whiteSpace=wrap;html=1;rounded=1;fontSize=18;arcSize=24;fillColor=#d5e8d4;strokeColor=#82b366;gradientColor=#97d077;" parent="1" vertex="1">
                    <mxGeometry x="-983" y="481" width="45" height="79.62" as="geometry"/>
                </mxCell>
                <mxCell id="158" value="" style="edgeStyle=none;html=1;" parent="1" source="115" target="157" edge="1">
                    <mxGeometry relative="1" as="geometry"/>
                </mxCell>
                <mxCell id="115" value="Client Struct :" style="swimlane;fontStyle=4;childLayout=stackLayout;horizontal=1;startSize=30;horizontalStack=0;resizeParent=1;resizeParentMax=0;resizeLast=0;collapsible=1;marginBottom=0;whiteSpace=wrap;html=1;fillColor=#b1ddf0;strokeColor=#10739e;" parent="1" vertex="1">
                    <mxGeometry x="-1040" y="698" width="160" height="300" as="geometry">
                        <mxRectangle x="-1030" y="630" width="60" height="30" as="alternateBounds"/>
                    </mxGeometry>
                </mxCell>
                <mxCell id="116" value="&lt;b&gt;&lt;u&gt;*Client ID&lt;/u&gt;&lt;/b&gt;" style="text;strokeColor=none;fillColor=none;align=center;verticalAlign=middle;spacingLeft=4;spacingRight=4;overflow=hidden;points=[[0,0.5],[1,0.5]];portConstraint=eastwest;rotatable=0;whiteSpace=wrap;html=1;" parent="115" vertex="1">
                    <mxGeometry y="30" width="160" height="30" as="geometry"/>
                </mxCell>
                <mxCell id="117" value="CIN" style="text;strokeColor=none;fillColor=none;align=center;verticalAlign=middle;spacingLeft=4;spacingRight=4;overflow=hidden;points=[[0,0.5],[1,0.5]];portConstraint=eastwest;rotatable=0;whiteSpace=wrap;html=1;" parent="115" vertex="1">
                    <mxGeometry y="60" width="160" height="30" as="geometry"/>
                </mxCell>
                <mxCell id="118" value="Name" style="text;strokeColor=none;fillColor=none;align=center;verticalAlign=middle;spacingLeft=4;spacingRight=4;overflow=hidden;points=[[0,0.5],[1,0.5]];portConstraint=eastwest;rotatable=0;whiteSpace=wrap;html=1;" parent="115" vertex="1">
                    <mxGeometry y="90" width="160" height="30" as="geometry"/>
                </mxCell>
                <mxCell id="119" value="Phone Number" style="text;strokeColor=none;fillColor=none;align=center;verticalAlign=middle;spacingLeft=4;spacingRight=4;overflow=hidden;points=[[0,0.5],[1,0.5]];portConstraint=eastwest;rotatable=0;whiteSpace=wrap;html=1;fontStyle=0" parent="115" vertex="1">
                    <mxGeometry y="120" width="160" height="30" as="geometry"/>
                </mxCell>
                <mxCell id="121" value="Address" style="text;strokeColor=none;fillColor=none;align=center;verticalAlign=middle;spacingLeft=4;spacingRight=4;overflow=hidden;points=[[0,0.5],[1,0.5]];portConstraint=eastwest;rotatable=0;whiteSpace=wrap;html=1;" parent="115" vertex="1">
                    <mxGeometry y="150" width="160" height="30" as="geometry"/>
                </mxCell>
                <mxCell id="122" value="PIN" style="text;strokeColor=none;fillColor=none;align=center;verticalAlign=middle;spacingLeft=4;spacingRight=4;overflow=hidden;points=[[0,0.5],[1,0.5]];portConstraint=eastwest;rotatable=0;whiteSpace=wrap;html=1;" parent="115" vertex="1">
                    <mxGeometry y="180" width="160" height="30" as="geometry"/>
                </mxCell>
                <mxCell id="123" value="*Activation" style="text;strokeColor=none;fillColor=none;align=center;verticalAlign=middle;spacingLeft=4;spacingRight=4;overflow=hidden;points=[[0,0.5],[1,0.5]];portConstraint=eastwest;rotatable=0;whiteSpace=wrap;html=1;" parent="115" vertex="1">
                    <mxGeometry y="210" width="160" height="30" as="geometry"/>
                </mxCell>
                <mxCell id="132" value="*Blacklisted" style="text;strokeColor=none;fillColor=none;align=center;verticalAlign=middle;spacingLeft=4;spacingRight=4;overflow=hidden;points=[[0,0.5],[1,0.5]];portConstraint=eastwest;rotatable=0;whiteSpace=wrap;html=1;" parent="115" vertex="1">
                    <mxGeometry y="240" width="160" height="30" as="geometry"/>
                </mxCell>
                <mxCell id="133" value="*Date Created" style="text;strokeColor=none;fillColor=none;align=center;verticalAlign=middle;spacingLeft=4;spacingRight=4;overflow=hidden;points=[[0,0.5],[1,0.5]];portConstraint=eastwest;rotatable=0;whiteSpace=wrap;html=1;" parent="115" vertex="1">
                    <mxGeometry y="270" width="160" height="30" as="geometry"/>
                </mxCell>
                <mxCell id="138" value="Active" style="rounded=1;whiteSpace=wrap;html=1;fillColor=#008a00;fontColor=#ffffff;strokeColor=#005700;" parent="1" vertex="1">
                    <mxGeometry x="-771" y="880" width="41" height="19" as="geometry"/>
                </mxCell>
                <mxCell id="139" value="*Inactive" style="rounded=1;whiteSpace=wrap;html=1;fillColor=#e51400;fontColor=#ffffff;strokeColor=#B20000;" parent="1" vertex="1">
                    <mxGeometry x="-771" y="914" width="51" height="16" as="geometry"/>
                </mxCell>
                <mxCell id="156" value="" style="edgeStyle=none;html=1;entryX=0.5;entryY=0;entryDx=0;entryDy=0;" parent="1" source="147" target="115" edge="1">
                    <mxGeometry relative="1" as="geometry"/>
                </mxCell>
                <mxCell id="147" value="&lt;font color=&quot;#000000&quot; style=&quot;font-size: 22px;&quot;&gt;Create Client&lt;/font&gt;" style="rounded=1;whiteSpace=wrap;html=1;fontSize=18;arcSize=24;fillColor=#ffe6cc;strokeColor=#d79b00;" parent="1" vertex="1">
                    <mxGeometry x="-1020.5" y="600.0000000000001" width="120" height="60" as="geometry"/>
                </mxCell>
                <mxCell id="149" value="*NO" style="rounded=1;whiteSpace=wrap;html=1;fillColor=#008a00;fontColor=#ffffff;strokeColor=#005700;" parent="1" vertex="1">
                    <mxGeometry x="-772" y="944" width="42" height="19" as="geometry"/>
                </mxCell>
                <mxCell id="150" value="Yes" style="rounded=1;whiteSpace=wrap;html=1;fillColor=#e51400;fontColor=#ffffff;strokeColor=#B20000;" parent="1" vertex="1">
                    <mxGeometry x="-772" y="968" width="42" height="22" as="geometry"/>
                </mxCell>
                <mxCell id="151" style="edgeStyle=none;html=1;entryX=0;entryY=0.5;entryDx=0;entryDy=0;exitX=1;exitY=0.75;exitDx=0;exitDy=0;" parent="1" source="115" target="139" edge="1">
                    <mxGeometry relative="1" as="geometry"/>
                </mxCell>
                <mxCell id="153" style="edgeStyle=none;html=1;entryX=0;entryY=0.5;entryDx=0;entryDy=0;" parent="1" source="132" target="149" edge="1">
                    <mxGeometry relative="1" as="geometry"/>
                </mxCell>
                <mxCell id="157" value="Save to Client file" style="shape=document;whiteSpace=wrap;html=1;boundedLbl=1;fontStyle=4;startSize=30;fillColor=#76608a;fontColor=#ffffff;strokeColor=#432D57;" parent="1" vertex="1">
                    <mxGeometry x="-1020" y="1101" width="120" height="80" as="geometry"/>
                </mxCell>
                <mxCell id="159" style="edgeStyle=none;html=1;exitX=1;exitY=0.5;exitDx=0;exitDy=0;" parent="1" source="123" edge="1">
                    <mxGeometry relative="1" as="geometry">
                        <mxPoint x="-770" y="890" as="targetPoint"/>
                    </mxGeometry>
                </mxCell>
                <mxCell id="160" style="edgeStyle=none;html=1;entryX=0;entryY=0.5;entryDx=0;entryDy=0;exitX=1;exitY=0.5;exitDx=0;exitDy=0;" parent="1" source="132" target="150" edge="1">
                    <mxGeometry relative="1" as="geometry"/>
                </mxCell>
                <mxCell id="177" value="" style="edgeStyle=none;html=1;" parent="1" source="174" target="176" edge="1">
                    <mxGeometry relative="1" as="geometry"/>
                </mxCell>
                <mxCell id="185" value="" style="edgeStyle=none;html=1;" parent="1" source="174" target="184" edge="1">
                    <mxGeometry relative="1" as="geometry"/>
                </mxCell>
                <mxCell id="174" value="&lt;font color=&quot;#000000&quot; style=&quot;font-size: 22px;&quot;&gt;Check account activation&lt;/font&gt;" style="shape=parallelogram;perimeter=parallelogramPerimeter;whiteSpace=wrap;html=1;fixedSize=1;fontSize=18;rounded=1;fillColor=#ffcd28;gradientColor=#ffa500;strokeColor=#d79b00;" parent="1" vertex="1">
                    <mxGeometry x="-251" y="834" width="139" height="81" as="geometry"/>
                </mxCell>
                <mxCell id="179" value="" style="edgeStyle=none;html=1;" parent="1" source="176" target="178" edge="1">
                    <mxGeometry relative="1" as="geometry"/>
                </mxCell>
                <mxCell id="176" value="&lt;font color=&quot;#000000&quot; style=&quot;font-size: 22px;&quot;&gt;Inactive&lt;/font&gt;" style="whiteSpace=wrap;html=1;fontSize=18;rounded=1;fillColor=#f8cecc;gradientColor=#ea6b66;strokeColor=#b85450;" parent="1" vertex="1">
                    <mxGeometry x="-439.5" y="844.5" width="120" height="60" as="geometry"/>
                </mxCell>
                <mxCell id="181" value="" style="edgeStyle=none;html=1;" parent="1" source="178" target="180" edge="1">
                    <mxGeometry relative="1" as="geometry"/>
                </mxCell>
                <mxCell id="178" value="&lt;font color=&quot;#000000&quot; style=&quot;font-size: 22px;&quot;&gt;Display request information&lt;/font&gt;" style="whiteSpace=wrap;html=1;fontSize=18;rounded=1;fillColor=#ffcc99;strokeColor=#36393d;" parent="1" vertex="1">
                    <mxGeometry x="-460" y="958.5" width="160" height="65.5" as="geometry"/>
                </mxCell>
                <mxCell id="191" value="" style="edgeStyle=none;html=1;exitX=0.5;exitY=1;exitDx=0;exitDy=0;entryX=0.5;entryY=0;entryDx=0;entryDy=0;" parent="1" source="180" target="190" edge="1">
                    <mxGeometry relative="1" as="geometry">
                        <Array as="points">
                            <mxPoint x="-380" y="1160"/>
                            <mxPoint x="-494" y="1160"/>
                        </Array>
                    </mxGeometry>
                </mxCell>
                <mxCell id="193" style="edgeStyle=none;html=1;entryX=0.5;entryY=0;entryDx=0;entryDy=0;exitX=0.5;exitY=1;exitDx=0;exitDy=0;" parent="1" source="180" target="192" edge="1">
                    <mxGeometry relative="1" as="geometry">
                        <Array as="points">
                            <mxPoint x="-380" y="1160"/>
                            <mxPoint x="-266" y="1160"/>
                        </Array>
                    </mxGeometry>
                </mxCell>
                <mxCell id="180" value="&lt;font color=&quot;#000000&quot; style=&quot;font-size: 20px;&quot;&gt;Message: want to change request information ?&lt;/font&gt;" style="shape=process;whiteSpace=wrap;html=1;backgroundOutline=1;fontSize=18;rounded=1;fillColor=#eeeeee;strokeColor=#36393d;" parent="1" vertex="1">
                    <mxGeometry x="-530" y="1076.75" width="300" height="57.25" as="geometry"/>
                </mxCell>
                <mxCell id="182" value="&lt;font color=&quot;#000000&quot; style=&quot;font-size: 22px;&quot;&gt;Exit&lt;/font&gt;" style="rounded=1;whiteSpace=wrap;html=1;fontSize=18;fillColor=#f8cecc;gradientColor=#ea6b66;strokeColor=#b85450;" parent="1" vertex="1">
                    <mxGeometry x="-439.875" y="1347.625" width="120" height="60" as="geometry"/>
                </mxCell>
                <mxCell id="187" value="" style="edgeStyle=none;html=1;" parent="1" source="184" target="186" edge="1">
                    <mxGeometry relative="1" as="geometry"/>
                </mxCell>
                <mxCell id="184" value="&lt;font color=&quot;#000000&quot; style=&quot;font-size: 22px;&quot;&gt;Active&lt;/font&gt;" style="whiteSpace=wrap;html=1;fontSize=18;rounded=1;fillColor=#d5e8d4;gradientColor=#97d077;strokeColor=#82b366;" parent="1" vertex="1">
                    <mxGeometry x="-41.5" y="844.5" width="120" height="60" as="geometry"/>
                </mxCell>
                <mxCell id="189" value="" style="edgeStyle=none;html=1;" parent="1" source="186" target="188" edge="1">
                    <mxGeometry relative="1" as="geometry"/>
                </mxCell>
                <mxCell id="186" value="&lt;font color=&quot;#000000&quot; style=&quot;font-size: 22px;&quot;&gt;Display client information&lt;/font&gt;" style="whiteSpace=wrap;html=1;fontSize=18;rounded=1;fillColor=#ffcc99;strokeColor=#36393d;" parent="1" vertex="1">
                    <mxGeometry x="-62.5" y="957.5" width="161.5" height="65.5" as="geometry"/>
                </mxCell>
                <mxCell id="188" value="Log in&lt;br&gt;account" style="whiteSpace=wrap;html=1;fontSize=18;rounded=1;" parent="1" vertex="1">
                    <mxGeometry x="-41.5" y="1077.5" width="120" height="60" as="geometry"/>
                </mxCell>
                <mxCell id="198" value="" style="edgeStyle=none;html=1;" parent="1" source="190" target="195" edge="1">
                    <mxGeometry relative="1" as="geometry"/>
                </mxCell>
                <mxCell id="190" value="&lt;font color=&quot;#000000&quot; style=&quot;font-size: 22px;&quot;&gt;Yes&lt;/font&gt;" style="whiteSpace=wrap;html=1;fontSize=18;rounded=1;fillColor=#d5e8d4;strokeColor=#82b366;" parent="1" vertex="1">
                    <mxGeometry x="-520" y="1180" width="52" height="60" as="geometry"/>
                </mxCell>
                <mxCell id="200" style="edgeStyle=none;html=1;entryX=0.5;entryY=0;entryDx=0;entryDy=0;" parent="1" source="192" target="182" edge="1">
                    <mxGeometry relative="1" as="geometry">
                        <mxPoint x="-380" y="1340" as="targetPoint"/>
                        <Array as="points">
                            <mxPoint x="-266" y="1330"/>
                            <mxPoint x="-380" y="1330"/>
                        </Array>
                    </mxGeometry>
                </mxCell>
                <mxCell id="192" value="&lt;font color=&quot;#000000&quot; style=&quot;font-size: 22px;&quot;&gt;No&lt;/font&gt;" style="whiteSpace=wrap;html=1;fontSize=18;rounded=1;fillColor=#f8cecc;strokeColor=#b85450;" parent="1" vertex="1">
                    <mxGeometry x="-291" y="1180" width="50" height="60" as="geometry"/>
                </mxCell>
                <mxCell id="205" style="edgeStyle=none;html=1;entryX=0.5;entryY=0;entryDx=0;entryDy=0;fontSize=22;fontColor=#000000;exitX=0.5;exitY=1;exitDx=0;exitDy=0;" edge="1" parent="1" source="195" target="182">
                    <mxGeometry relative="1" as="geometry">
                        <Array as="points">
                            <mxPoint x="-492" y="1330"/>
                            <mxPoint x="-380" y="1330"/>
                        </Array>
                    </mxGeometry>
                </mxCell>
                <mxCell id="195" value="&lt;font color=&quot;#000000&quot; style=&quot;font-size: 22px;&quot;&gt;Update Client&lt;/font&gt;" style="whiteSpace=wrap;html=1;fontSize=18;rounded=1;fillColor=#ffe6cc;strokeColor=#d79b00;" parent="1" vertex="1">
                    <mxGeometry x="-554" y="1259" width="124" height="51" as="geometry"/>
                </mxCell>
                <mxCell id="201" value="&lt;font color=&quot;#000000&quot; style=&quot;font-size: 22px;&quot;&gt;Main function&lt;/font&gt;" style="whiteSpace=wrap;html=1;fontSize=18;rounded=1;fillColor=#dae8fc;strokeColor=#6c8ebf;" parent="1" vertex="1">
                    <mxGeometry x="201" y="420" width="120" height="60" as="geometry"/>
                </mxCell>
            </root>
        </mxGraphModel>
    </diagram>
</mxfile>